<svg xmlns="http://www.w3.org/2000/svg" width="32" height="32" viewBox="0 0 32 32" fill="none">
<path d="M20 21L25 16M25 16L20 11M25 16H13M16 21C16 21.93 16 22.395 15.8978 22.7765C15.6204 23.8117 14.8117 24.6204 13.7765 24.8978C13.395 25 12.93 25 12 25H11.5C10.1022 25 9.40326 25 8.85195 24.7716C8.11687 24.4672 7.53284 23.8831 7.22836 23.1481C7 22.5967 7 21.8978 7 20.5V11.5C7 10.1022 7 9.40326 7.22836 8.85195C7.53284 8.11687 8.11687 7.53284 8.85195 7.22836C9.40326 7 10.1022 7 11.5 7H12C12.93 7 13.395 7 13.7765 7.10222C14.8117 7.37962 15.6204 8.18827 15.8978 9.22354C16 9.60504 16 10.07 16 11" stroke="white" stroke-width="1.5" stroke-linecap="round" stroke-linejoin="round"/>
</svg>