<svg xmlns="http://www.w3.org/2000/svg" width="120" height="120" viewBox="0 0 120 120" fill="none">
<path d="M31.4286 32.1214C31.9048 34.0248 35.7143 37.065 35.7143 37.065L50.4762 22.3984C50.4762 22.3984 46.1905 17.3698 44.2858 18.3215C42.381 19.2732 30.9524 30.218 31.4286 32.1214Z" fill="#FFE6E5"/>
<path d="M85.7107 105.404L89.9964 51.1556H32.8535L37.6154 105.404C38.0916 111.114 43.8059 111.59 46.663 111.59H78.5678C83.8059 110.638 84.8259 108.056 85.7107 105.404Z" fill="#FFE6E5"/>
<path d="M77.1428 32.1214L71.4284 31.1697L67.1428 36.88L72.8571 39.7351H80.4762L77.1428 32.1214Z" fill="#FFE6E5"/>
<path d="M65.4484 7.99999L50.4762 22.3984M20 53.2066C20 53.2066 30.295 42.5396 35.7143 37.065M35.7143 37.065C35.7143 37.065 31.9048 34.0248 31.4286 32.1214C30.9524 30.218 42.381 19.2732 44.2858 18.3215C46.1905 17.3698 50.4762 22.3984 50.4762 22.3984M35.7143 37.065L50.4762 22.3984M86.6666 19.749C85.873 19.749 83.9047 20.1297 82.3809 21.6525C80.8571 23.1752 80.4762 24.8249 80.4762 25.4593M88.0952 28.3145C89.5238 27.3628 92.6667 25.4593 93.8095 25.4593C95.2381 25.4593 98.5714 25.4593 100 25.4593M92.8571 34.5007H95.7143M73.8095 19.749H76.6666M51.2185 64.1514V100.793M61.5354 64.1514V100.793M71.4284 64.1514V100.793M89.9964 51.1556L85.7107 105.404C84.8259 108.056 83.8059 110.638 78.5678 111.59H46.663C43.8059 111.59 38.0916 111.114 37.6154 105.404L32.8535 51.1556H89.9964ZM71.4284 31.1697L77.1428 32.1214L80.4762 39.7351H72.8571L67.1428 36.88L71.4284 31.1697Z" stroke="#C0351F" stroke-width="4" stroke-linecap="round" stroke-linejoin="round"/>
</svg>