<svg width="341" height="500" viewBox="0 0 341 500" fill="none" xmlns="http://www.w3.org/2000/svg">
<circle cx="214.566" cy="126.872" r="105.623" stroke="#EEEEEE" stroke-width="2" stroke-linecap="round" stroke-dasharray="5 5"/>
<circle cx="59.6147" cy="255.128" r="58.6147" stroke="#EEEEEE" stroke-width="2" stroke-linecap="round" stroke-dasharray="5 5"/>
<path d="M18.4102 122.23L21.8922 118.748M21.8922 122.23L18.4102 118.748" stroke="#C3C8CE" stroke-linecap="round" stroke-linejoin="round"/>
<path d="M26.5352 278.922L30.0172 275.44M30.0172 278.922L26.5352 275.44" stroke="#C3C8CE" stroke-linecap="round" stroke-linejoin="round"/>
<path d="M328.314 254.277L332.872 252.412M331.526 255.623L329.66 251.066" stroke="#C3C8CE" stroke-linecap="round" stroke-linejoin="round"/>
<path d="M234.299 153.297L238.856 151.432M237.51 154.643L235.645 150.086" stroke="#C3C8CE" stroke-linecap="round" stroke-linejoin="round"/>
<path d="M335.114 144.543L340.001 143.937M337.861 146.683L337.255 141.796" stroke="#C3C8CE" stroke-linecap="round" stroke-linejoin="round"/>
<path d="M142.593 35.1146L147.503 35.4853M144.863 37.7551L145.233 32.8447" stroke="#C3C8CE" stroke-linecap="round" stroke-linejoin="round"/>
<g filter="url(#filter0_d_5342_32941)">
<path fill-rule="evenodd" clip-rule="evenodd" d="M186.711 5C182.224 5 178.586 8.6376 178.586 13.1248H265.637C265.637 8.6376 269.275 5 273.762 5H186.711Z" fill="#F0F0F0"/>
</g>
<path d="M178.586 13.125H265.637V85.0876H178.586V13.125Z" fill="#F0F0F0"/>
<g filter="url(#filter1_d_5342_32941)">
<path d="M78.7671 70.7129C78.7671 65.19 83.2442 60.7129 88.7671 60.7129H225.014V72.3198H78.7671V70.7129Z" fill="#F0F0F0"/>
</g>
<path d="M78.7671 72.3198H214.568V280.083H78.7671V72.3198Z" fill="#F0F0F0"/>
<path fill-rule="evenodd" clip-rule="evenodd" d="M236.62 71.1591V71.1592H236.62V109.462H250.549V134.997H236.62H214.567V71.193L214.567 71.1591C214.567 65.3898 219.504 60.7129 225.594 60.7129C231.684 60.7129 236.62 65.3898 236.62 71.1591Z" fill="#D9D9D9"/>
<path fill-rule="evenodd" clip-rule="evenodd" d="M265.636 60.7129H236.619V120.488V123.39H236.909C238.254 130.012 244.109 134.997 251.128 134.997C258.147 134.997 264.002 130.012 265.346 123.39H265.636V120.488V60.7129Z" fill="#F0F0F0"/>
<g filter="url(#filter2_d_5342_32941)">
<path d="M46.2681 273.119H199.479V295.172H56.268C50.7452 295.172 46.2681 290.695 46.2681 285.172V273.119Z" fill="#D9D9D9"/>
</g>
<circle cx="198.318" cy="278.922" r="16.2496" fill="#F0F0F0"/>
<circle cx="35.2401" cy="134.417" r="2.24103" stroke="#C3C8CE"/>
<circle cx="59.6146" cy="334.055" r="2.24103" stroke="#C3C8CE"/>
<circle cx="272.02" cy="300.395" r="2.24103" stroke="#C3C8CE"/>
<circle cx="244.164" cy="161.113" r="2.24103" stroke="#C3C8CE"/>
<circle cx="290.592" cy="70.5789" r="2.24103" stroke="#C3C8CE"/>
<path d="M115.085 188.391C115.085 190.503 116.797 192.215 118.909 192.215C121.02 192.215 122.732 190.503 122.732 188.391V157.06C122.732 153.563 119.898 150.729 116.402 150.729C114.197 150.729 112.15 151.876 111 153.758L98.1485 174.784C97.7244 175.478 97.5 176.275 97.5 177.088C97.5 179.529 99.4784 181.507 101.919 181.507H124.477C126.227 181.507 127.645 180.089 127.645 178.34C127.645 176.59 126.227 175.172 124.477 175.172H105.483L111.847 164.857C113.019 162.614 114.136 160.316 115.196 158.073H115.42C115.308 160.54 115.085 164.296 115.085 166.707V188.391Z" fill="#153355"/>
<path d="M145.723 193C154.097 193 159.679 185.656 159.679 171.304C159.679 157.008 154.097 150 145.723 150C137.294 150 131.711 157.008 131.711 171.304C131.711 185.656 137.294 193 145.723 193ZM145.723 186.553C142.151 186.553 139.471 182.965 139.471 171.304C139.471 159.699 142.151 156.335 145.723 156.335C149.296 156.335 151.92 159.699 151.92 171.304C151.92 182.965 149.296 186.553 145.723 186.553Z" fill="#153355"/>
<path d="M180.94 188.391C180.94 190.503 182.652 192.215 184.764 192.215C186.875 192.215 188.587 190.503 188.587 188.391V157.06C188.587 153.563 185.753 150.729 182.257 150.729C180.052 150.729 178.005 151.876 176.855 153.758L164.004 174.784C163.579 175.478 163.355 176.275 163.355 177.088C163.355 179.529 165.333 181.507 167.774 181.507H190.332C192.082 181.507 193.5 180.089 193.5 178.34C193.5 176.59 192.082 175.172 190.332 175.172H171.338L177.702 164.857C178.874 162.614 179.991 160.316 181.051 158.073H181.275C181.163 160.54 180.94 164.296 180.94 166.707V188.391Z" fill="#153355"/>
<path fill-rule="evenodd" clip-rule="evenodd" d="M256.034 243.703L247.827 251.91L270.808 274.891L270.809 274.889C270.839 274.921 270.87 274.952 270.901 274.983C273.167 277.25 276.842 277.25 279.108 274.983C281.374 272.717 281.374 269.042 279.108 266.776C279.077 266.745 279.046 266.714 279.014 266.684L279.015 266.683L256.034 243.703Z" fill="#9E9E9E"/>
<rect x="241.263" y="245.345" width="11.6069" height="9.2855" transform="rotate(-45 241.263 245.345)" fill="#646464"/>
<path fill-rule="evenodd" clip-rule="evenodd" d="M222.691 251.065C241.281 251.065 256.351 235.995 256.351 217.406C256.351 198.816 241.281 183.746 222.691 183.746C204.101 183.746 189.031 198.816 189.031 217.406C189.031 235.995 204.101 251.065 222.691 251.065ZM222.691 245.262C238.076 245.262 250.548 232.79 250.548 217.406C250.548 202.021 238.076 189.549 222.691 189.549C207.307 189.549 194.835 202.021 194.835 217.406C194.835 232.79 207.307 245.262 222.691 245.262Z" fill="#B1B1B1"/>
<circle cx="222.691" cy="217.406" r="27.8565" fill="white" fill-opacity="0.1"/>
<g filter="url(#filter3_d_5342_32941)">
<path d="M220.754 195.921C220.615 194.38 219.247 193.226 217.731 193.541C215.273 194.052 212.902 194.941 210.706 196.181C207.694 197.882 205.079 200.204 203.034 202.993C200.989 205.783 199.561 208.976 198.844 212.359C198.322 214.827 198.187 217.355 198.44 219.853C198.595 221.393 200.107 222.351 201.619 222.02C203.131 221.689 204.066 220.192 203.964 218.648C203.85 216.934 203.972 215.209 204.329 213.52C204.881 210.914 205.98 208.456 207.555 206.308C209.13 204.16 211.144 202.372 213.463 201.063C214.966 200.214 216.575 199.579 218.243 199.172C219.747 198.805 220.893 197.463 220.754 195.921Z" fill="white"/>
</g>
<path d="M23.4805 407.468C32.8885 407.468 39.3205 400.46 39.3205 388.892C39.3205 377.372 32.8885 370.652 23.4805 370.652C14.0245 370.652 7.59249 377.324 7.59249 388.892C7.59249 400.46 14.0245 407.468 23.4805 407.468ZM23.4805 401.324C18.1525 401.324 14.8405 396.476 14.8405 388.892C14.8405 381.308 18.1525 376.748 23.4805 376.748C28.7605 376.748 32.1205 381.308 32.1205 388.892C32.1205 396.476 28.7605 401.324 23.4805 401.324ZM56.962 407.468C63.682 407.468 69.826 402.284 69.826 393.404C69.826 384.476 63.682 379.292 56.962 379.292C50.194 379.292 44.05 384.476 44.05 393.404C44.05 402.284 50.194 407.468 56.962 407.468ZM56.962 401.756C53.266 401.756 51.25 398.444 51.25 393.404C51.25 388.316 53.266 385.052 56.962 385.052C60.61 385.052 62.626 388.316 62.626 393.404C62.626 398.444 60.61 401.756 56.962 401.756ZM75.7769 417.116H82.8329V408.956L82.5929 404.588C84.6089 406.46 86.9129 407.468 89.2169 407.468C95.1209 407.468 100.641 402.188 100.641 392.972C100.641 384.668 96.7049 379.292 90.0809 379.292C87.2009 379.292 84.4169 380.78 82.2089 382.748H82.0649L81.4889 379.964H75.7769V417.116ZM87.6809 401.66C86.2409 401.66 84.5129 401.18 82.8329 399.692V387.836C84.6569 385.964 86.2889 385.052 88.0649 385.052C91.8089 385.052 93.3929 387.884 93.3929 393.068C93.3929 398.876 90.8969 401.66 87.6809 401.66ZM113.879 407.468C120.839 407.468 124.535 403.724 124.535 398.972C124.535 394.028 120.647 392.204 117.095 390.86C114.215 389.852 111.767 389.084 111.767 387.164C111.767 385.58 112.871 384.524 115.319 384.524C117.287 384.524 119.207 385.484 121.079 386.828L124.295 382.604C122.087 380.876 119.015 379.292 115.127 379.292C108.983 379.292 105.143 382.7 105.143 387.452C105.143 392.012 108.935 394.028 112.343 395.372C115.127 396.428 117.959 397.388 117.959 399.356C117.959 401.036 116.711 402.236 114.023 402.236C111.527 402.236 109.271 401.132 106.823 399.26L103.655 403.724C106.295 405.932 110.279 407.468 113.879 407.468ZM132.748 394.7H137.356L138.364 376.988L138.556 370.316H131.5L131.692 376.988L132.748 394.7ZM135.004 407.468C137.548 407.468 139.42 405.5 139.42 402.86C139.42 400.22 137.548 398.3 135.004 398.3C132.508 398.3 130.636 400.22 130.636 402.86C130.636 405.5 132.508 407.468 135.004 407.468ZM159.634 396.044H175.57V398.54H159.634V396.044ZM159.634 389.9H175.57V392.396H159.634V389.9ZM153.922 386.108V402.332H181.57V386.108H153.922ZM146.434 371.42V376.364H189.442V371.42H146.434ZM164.866 366.044V387.596H170.578V366.044H164.866ZM162.322 372.956C158.914 378.044 152.098 382.748 145.186 385.004C146.386 386.108 148.018 388.22 148.882 389.612C156.178 386.684 163.042 381.26 167.17 374.78L162.322 372.956ZM146.866 404.684V409.772H189.058V404.684H146.866ZM168.322 376.508C174.178 380.204 182.05 385.676 185.746 389.228L189.49 385.004C185.458 381.5 177.394 376.316 171.73 372.908L168.322 376.508ZM203.074 365.42C200.866 369.932 197.026 374.204 193.09 376.892C194.098 377.948 195.778 380.444 196.354 381.548C200.866 378.092 205.33 372.62 208.066 367.1L203.074 365.42ZM203.074 371.084L201.682 376.172H236.146V371.084H203.074ZM195.874 382.268V387.404H236.386V382.268H195.874ZM194.434 393.548V398.684H237.442V393.548H194.434ZM209.458 377.948V396.38H214.258V377.948H209.458ZM201.058 377.948V396.476H206.146V377.948H201.058ZM217.954 377.948V396.476H222.754V377.948H217.954ZM226.402 377.948V396.476H231.682V377.948H226.402ZM207.634 401.564C208.162 404.54 208.498 408.476 208.498 410.828L214.162 410.012C214.114 407.708 213.586 403.868 212.962 400.94L207.634 401.564ZM217.378 401.468C218.482 404.444 219.538 408.284 219.874 410.636L225.634 409.532C225.202 407.132 224.002 403.388 222.802 400.556L217.378 401.468ZM227.17 401.372C229.138 404.492 231.49 408.668 232.402 411.26L238.066 408.716C236.914 406.172 234.466 402.14 232.45 399.212L227.17 401.372ZM199.426 399.596C198.034 402.908 195.73 406.748 194.002 409.052L199.666 411.308C201.394 408.62 203.65 404.444 204.994 401.036L199.426 399.596ZM256.402 380.3V385.82H265.666V380.3H256.402ZM254.194 366.044V404.972L260.29 404.3V366.044H254.194ZM245.074 376.028V406.316L250.786 405.548V376.028H245.074ZM241.522 404.78L242.482 410.876C248.818 409.628 257.65 408.092 265.81 406.508L265.378 400.844C256.93 402.332 247.666 403.916 241.522 404.78ZM267.394 366.044V401.228C267.394 408.092 268.93 410.06 274.258 410.06C275.266 410.06 279.01 410.06 280.162 410.06C285.01 410.06 286.498 406.94 287.122 398.972C285.442 398.588 283.042 397.484 281.65 396.428C281.41 402.668 281.074 404.348 279.538 404.348C278.77 404.348 275.938 404.348 275.218 404.348C273.682 404.348 273.49 403.964 273.49 401.324V366.044H267.394ZM271.618 380.3V385.82H284.386V380.3H271.618ZM301.762 387.548H322.258V390.188H301.762V387.548ZM301.762 394.316H322.258V397.004H301.762V394.316ZM301.762 380.78H322.258V383.42H301.762V380.78ZM295.714 376.412V401.372H328.546V376.412H295.714ZM314.242 404.876C319.57 406.7 325.09 409.34 328.258 411.116L334.018 407.276C330.322 405.5 324.034 402.956 318.562 401.132L314.242 404.876ZM291.634 368.252V373.484H331.906V368.252H291.634ZM308.818 370.796C308.674 373.052 308.098 376.172 307.57 378.38L313.138 379.292C313.906 377.324 314.914 374.492 315.826 371.516L308.818 370.796ZM304.642 400.796C301.33 402.86 294.85 405.356 289.762 406.652C291.106 407.852 292.786 409.82 293.746 411.068C298.786 409.676 305.314 407.132 309.634 404.732L304.642 400.796Z" fill="#153355"/>
<path d="M37.2525 451.092V452.676H44.1165V445.716H37.2525V447.3H42.4365V451.092H37.2525ZM36.3885 445.716V457.524C36.3885 459.948 37.2285 460.548 40.0605 460.548C40.6845 460.548 45.5085 460.548 46.1805 460.548C48.7965 460.548 49.3965 459.54 49.6845 456.108C49.1805 456.012 48.4605 455.724 48.0285 455.436C47.8365 458.316 47.5965 458.94 46.1085 458.94C45.0765 458.94 40.9245 458.94 40.1085 458.94C38.4525 458.94 38.1405 458.676 38.1405 457.548V445.716H36.3885ZM38.3085 438.612C37.4925 441.66 36.0525 444.564 34.1805 446.436C34.6125 446.7 35.3325 447.276 35.6205 447.564C37.4685 445.5 39.0765 442.332 40.0365 438.996L38.3085 438.612ZM46.9965 441.78V442.14C46.7805 449.724 46.5405 452.316 46.0605 452.916C45.8685 453.18 45.7005 453.252 45.3165 453.228C44.9325 453.228 44.0445 453.228 43.0605 453.132C43.3005 453.612 43.4925 454.332 43.5165 454.836C44.5485 454.86 45.5565 454.884 46.1565 454.812C46.7805 454.74 47.1885 454.572 47.5965 454.02C48.2445 453.18 48.4605 450.468 48.7005 442.596C48.7005 442.38 48.7245 441.78 48.7245 441.78H46.9965ZM37.9005 441.78V443.412H47.6445V441.78H37.9005ZM27.1485 451.404L27.5565 453.18C29.6925 452.532 32.4525 451.668 35.0685 450.852L34.8525 449.244C32.0205 450.06 29.0925 450.924 27.1485 451.404ZM27.5565 443.484V445.164H34.8765V443.484H27.5565ZM30.8205 438.66V458.532C30.8205 458.892 30.6765 458.988 30.3645 458.988C30.0765 459.012 29.0685 459.012 27.9885 458.964C28.2285 459.468 28.4685 460.26 28.5405 460.716C30.1005 460.716 31.0845 460.668 31.7085 460.356C32.3325 460.068 32.5485 459.564 32.5485 458.532V438.66H30.8205ZM51.9165 442.452V443.916H63.9645V442.452H51.9165ZM51.6045 448.764V450.156H64.3005V448.764H51.6045ZM54.8685 452.892V460.74H56.3805V452.892H54.8685ZM58.3245 452.916V460.74H59.8365V452.916H58.3245ZM52.2045 445.596V446.964H61.4925V452.196H52.2045V453.564H62.8605V445.596H52.2045ZM54.9165 452.58C54.1485 454.38 52.6125 456.588 51.2445 457.692C51.5085 458.148 51.8685 458.868 52.0125 459.348C53.4525 457.932 54.9885 455.244 55.8285 453.06L54.9165 452.58ZM59.8365 452.964L58.9725 453.612C59.6925 454.524 61.5885 457.332 62.1885 458.436L63.2445 457.26C62.7405 456.54 60.4605 453.612 59.8365 452.964ZM52.7805 439.524C53.6685 440.436 54.6525 441.708 55.1085 442.548L56.5005 441.732C56.0445 440.892 55.0125 439.668 54.1005 438.828L52.7805 439.524ZM61.1565 438.66C60.5325 439.836 59.4285 441.516 58.5405 442.572L59.7885 443.172C60.7005 442.188 61.8285 440.676 62.7885 439.332L61.1565 438.66ZM54.9885 443.028V452.94H56.3805V443.028H54.9885ZM58.3245 443.076V452.964H59.7165V443.076H58.3245ZM66.1245 442.452V444.108H72.1725V442.452H66.1245ZM66.5085 438.588C65.9565 442.044 64.9485 445.356 63.3405 447.468C63.7485 447.66 64.5165 448.116 64.8285 448.38C66.4125 446.1 67.5405 442.596 68.1885 438.828L66.5085 438.588ZM71.7405 442.452V442.764C71.4285 444.54 70.9005 446.796 70.3965 448.164L71.7645 448.596C72.3885 447.108 72.9885 444.756 73.4205 442.74L72.2685 442.38L72.0285 442.452H71.7405ZM69.0765 448.644L67.5885 448.86C68.3325 454.356 69.5565 457.692 72.5805 460.692C72.7965 460.212 73.3005 459.684 73.7325 459.348C70.9005 456.708 69.7725 453.732 69.0765 448.644ZM67.5645 445.548V447.204C67.5645 450.612 67.2045 455.676 62.6685 459.516C63.0285 459.804 63.6045 460.404 63.8445 460.788C68.7405 456.588 69.2445 451.044 69.2445 447.204V445.548H67.5645ZM84.5325 454.284C87.0525 453.42 88.6845 451.452 88.6845 448.86C88.6845 447.18 87.9645 446.076 86.6205 446.076C85.6605 446.076 84.7965 446.676 84.7965 447.804C84.7965 448.932 85.6125 449.532 86.5965 449.532C87.0525 449.532 87.5325 449.412 87.8685 448.98L86.5725 447.156L87.0285 449.172C87.0285 450.996 85.9485 452.22 83.9805 453.012L84.5325 454.284ZM109.732 438.684C108.916 440.964 107.5 443.148 105.868 444.588C106.276 444.828 106.948 445.404 107.212 445.716C108.892 444.108 110.452 441.66 111.388 439.092L109.732 438.684ZM109.684 445.284C109.036 446.964 107.932 448.62 106.66 449.748C107.044 450.012 107.74 450.516 108.004 450.804C109.276 449.556 110.572 447.636 111.364 445.74L109.684 445.284ZM109.444 440.916L108.82 442.476H119.86V440.916H109.444ZM116.356 445.908C117.508 447.42 118.78 449.484 119.308 450.828L120.844 450.012C120.292 448.692 119.02 446.7 117.796 445.236L116.356 445.908ZM119.332 440.916V441.156C118.9 442.38 118.204 443.892 117.652 444.828L119.212 445.164C119.788 444.18 120.556 442.548 121.156 441.156L119.932 440.844L119.62 440.916H119.332ZM105.076 438.588C103.732 441.252 101.548 443.916 99.3165 445.596C99.6765 445.932 100.276 446.652 100.516 447.012C102.796 445.092 105.172 442.116 106.708 439.116L105.076 438.588ZM102.844 443.148V452.364H104.572V441.468L104.548 441.444L102.844 443.148ZM104.788 453.636V457.812C104.788 459.78 105.532 460.284 108.388 460.284C108.988 460.284 113.524 460.284 114.148 460.284C116.524 460.284 117.124 459.54 117.364 456.492C116.86 456.396 116.116 456.132 115.708 455.82C115.564 458.268 115.348 458.604 114.028 458.604C113.02 458.604 109.228 458.604 108.46 458.604C106.876 458.604 106.588 458.484 106.588 457.788V453.636H104.788ZM108.436 452.58C109.732 453.852 111.22 455.652 111.844 456.828L113.332 455.94C112.66 454.74 111.148 453.012 109.804 451.788L108.436 452.58ZM116.908 453.972C118.012 455.676 119.092 458.004 119.452 459.468L121.18 458.772C120.772 457.284 119.644 455.052 118.516 453.348L116.908 453.972ZM102.076 453.756C101.524 455.364 100.612 457.548 99.6285 458.964L101.332 459.756C102.22 458.292 103.084 456.012 103.684 454.428L102.076 453.756ZM113.26 443.388V452.292H114.988V443.388H113.26ZM123.772 452.364V453.9H145.204V452.364H123.772ZM124.156 439.692V441.276H144.82V439.692H124.156ZM139.66 450.948C137.716 456.54 132.988 458.604 123.7 459.156C123.988 459.564 124.3 460.236 124.42 460.74C134.092 459.972 139.228 457.668 141.388 451.452L139.66 450.948ZM126.796 456.732C133.372 457.788 139.516 459.3 143.164 460.692L144.82 459.396C140.884 458.028 134.428 456.492 128.212 455.556L126.796 456.732ZM130.708 440.292V448.668H132.412V440.292H130.708ZM136.3 440.292V448.668H138.004V440.292H136.3ZM127.036 444.804H142.012V448.068H127.036V444.804ZM125.356 443.34V449.556H143.812V443.34H125.356ZM126.796 456.732H128.884C130.18 455.172 132.124 452.484 133.228 450.228L131.428 449.82C130.348 452.1 128.38 454.932 126.796 456.732ZM147.292 451.356L147.82 453.084C150.124 452.436 153.148 451.524 155.956 450.684L155.74 449.028C152.692 449.916 149.452 450.828 147.292 451.356ZM147.58 443.484V445.188H155.716V443.484H147.58ZM151.036 438.66V458.436C151.036 458.772 150.892 458.892 150.556 458.892C150.244 458.892 149.212 458.916 148.084 458.868C148.3 459.348 148.564 460.092 148.636 460.548C150.292 460.548 151.276 460.5 151.924 460.212C152.524 459.948 152.788 459.444 152.788 458.436V438.66H151.036ZM156.004 445.428L156.196 447.156L169.084 445.764L168.892 444.084L156.004 445.428ZM162.7 440.124C163.876 441.18 165.316 442.692 165.94 443.7L167.38 442.668C166.708 441.684 165.268 440.22 164.068 439.212L162.7 440.124ZM159.244 438.732C159.82 450.972 161.716 460.212 167.068 460.62C168.292 460.692 169.252 459.492 169.804 455.58C169.42 455.412 168.628 454.956 168.268 454.596C168.028 457.236 167.644 458.556 166.996 458.508C163.42 458.148 161.476 449.508 161.068 438.732H159.244ZM166.372 447.636C164.38 452.172 160.06 456.588 155.284 458.484C155.788 458.844 156.364 459.42 156.7 459.9C161.38 457.788 165.7 453.252 167.86 448.548L166.372 447.636ZM173.644 442.5V444.108H179.26V456.564H173.644V458.196H180.94V442.5H173.644ZM172.564 442.5V460.116H174.244V442.5H172.564ZM173.524 449.172V450.78H180.148V449.172H173.524ZM176.236 438.588C176.044 439.836 175.588 441.66 175.18 442.812L176.62 443.172C177.1 442.092 177.7 440.436 178.18 438.948L176.236 438.588ZM184.348 442.428V444.108H191.716V442.428H184.348ZM191.092 442.428V442.812C190.756 453.396 190.372 457.38 189.58 458.244C189.316 458.556 189.028 458.628 188.548 458.628C187.996 458.628 186.556 458.604 184.996 458.484C185.332 458.964 185.548 459.708 185.596 460.236C186.94 460.308 188.356 460.356 189.172 460.26C190.012 460.188 190.564 459.972 191.092 459.276C192.052 458.1 192.388 454.38 192.772 443.364C192.772 443.1 192.772 442.428 192.772 442.428H191.092ZM184.852 438.54C184.084 441.876 182.764 445.188 181.132 447.3C181.564 447.54 182.308 448.044 182.62 448.332C184.276 446.052 185.692 442.524 186.58 438.948L184.852 438.54ZM183.748 448.668C185.068 450.42 186.676 452.796 187.396 454.26L188.932 453.3C188.164 451.884 186.508 449.556 185.14 447.852L183.748 448.668ZM200.596 448.74H212.716V450.948H200.596V448.74ZM200.596 452.34H212.716V454.548H200.596V452.34ZM200.596 445.188H212.716V447.348H200.596V445.188ZM198.724 443.748V455.988H214.636V443.748H198.724ZM208.276 457.572C211.084 458.532 213.94 459.804 215.644 460.74L217.324 459.516C215.452 458.58 212.38 457.332 209.548 456.396L208.276 457.572ZM196.444 439.884V441.54H216.484V439.884H196.444ZM205.588 440.58C205.444 441.684 205.084 443.292 204.748 444.348L206.452 444.66C206.836 443.676 207.292 442.212 207.7 440.844L205.588 440.58ZM203.116 456.276C201.46 457.38 198.172 458.628 195.58 459.324C195.988 459.708 196.54 460.332 196.828 460.716C199.396 459.996 202.66 458.724 204.748 457.452L203.116 456.276ZM227.02 449.316V450.804H233.596V449.316H227.02ZM227.02 453.492V454.98H233.668V453.492H227.02ZM222.076 457.788V459.468H239.02V457.788H222.076ZM220.972 444.972V460.74H222.724V446.652H238.18V460.74H240.004V444.972H220.972ZM226.18 446.028V458.556H227.812V446.028H226.18ZM232.9 446.028V458.484H234.556V446.028H232.9ZM229.3 441.036C229.132 442.428 228.652 444.42 228.268 445.716L229.9 446.172C230.38 444.972 230.884 443.124 231.388 441.516L229.3 441.036ZM219.892 440.244V441.972H241.156V440.244H219.892ZM244.156 440.34V442.164H264.82V440.34H244.156ZM255.916 447.324C258.772 449.268 262.372 452.076 264.052 453.924L265.516 452.556C263.74 450.708 260.068 447.996 257.26 446.172L255.916 447.324ZM255.46 440.964C253.228 445.476 248.764 450.084 243.556 452.7C243.916 453.084 244.492 453.804 244.78 454.26C250.204 451.404 254.692 446.652 257.428 441.684L255.46 440.964ZM253.492 445.764V460.692H255.436V443.844L253.492 445.764ZM274.54 452.436V454.116H289.468V452.436H274.54ZM276.58 446.22V447.876H286.468V446.22H276.58ZM281.212 450.444V458.556C281.212 458.892 281.116 458.988 280.684 459.012C280.252 459.06 278.836 459.06 277.228 458.988C277.468 459.516 277.708 460.212 277.804 460.692C279.868 460.716 281.188 460.716 282.004 460.452C282.796 460.164 283.036 459.636 283.036 458.58V450.444H281.212ZM285.988 446.22V446.556C284.98 447.804 282.964 449.508 281.212 450.444C281.5 450.708 281.98 451.188 282.196 451.5C284.188 450.396 286.444 448.668 287.956 447.012L286.804 446.124L286.42 446.22H285.988ZM267.988 441.78V443.508H289.012V441.78H267.988ZM275.74 438.636C274.396 443.604 271.588 448.932 267.22 451.98C267.508 452.388 267.94 453.18 268.156 453.636C272.956 450.204 275.908 444.612 277.588 439.092L275.74 438.636ZM271.012 448.452V460.692H272.812V448.452H271.012ZM291.988 442.356V444.108H313.012V442.356H291.988ZM299.428 449.964V451.644H312.076V449.964H299.428ZM298.492 458.46V460.164H313.012V458.46H298.492ZM304.852 445.332V459.372H306.652V445.332H304.852ZM299.884 438.636C298.54 443.58 295.732 448.908 291.412 451.956C291.7 452.364 292.156 453.132 292.348 453.612C297.124 450.18 300.052 444.588 301.732 439.092L299.884 438.636ZM295.132 448.524V460.644H296.932V448.524H295.132ZM72.3885 474.604V475.972H85.3005V474.604H72.3885ZM72.9885 477.46V478.78H84.8445V477.46H72.9885ZM72.1245 480.412V481.804H85.5405V480.412H72.1245ZM77.8365 472.636V481.156H79.5885V472.636H77.8365ZM82.4445 483.244V492.844C82.4445 493.108 82.3725 493.204 82.0605 493.204C81.7485 493.228 80.7645 493.228 79.6845 493.18C79.9005 493.612 80.1405 494.236 80.2125 494.668C81.7005 494.692 82.7085 494.668 83.3325 494.428C83.9565 494.164 84.1485 493.708 84.1485 492.844V483.244H82.4445ZM74.4285 486.412V487.732H83.3085V486.412H74.4285ZM74.4285 489.508V490.804H83.3085V489.508H74.4285ZM73.5405 483.244V487.66C73.5405 489.58 73.3725 492.004 71.9565 493.828C72.2925 494.044 72.9645 494.668 73.2045 495.004C74.8845 492.964 75.1965 489.94 75.1965 487.684V483.244H73.5405ZM74.5005 483.244V484.66H83.0445V483.244H74.5005ZM64.1325 479.74V481.18H71.1405V479.74H64.1325ZM65.1165 486.316V487.804H69.5085V491.812H65.1165V493.324H71.0925V486.316H65.1165ZM64.2525 486.316V494.428H65.8125V486.316H64.2525ZM64.1565 483.004V484.468H71.1645V483.004H64.1565ZM63.5565 476.668V478.18H71.8605V476.668H63.5565ZM66.4125 473.164C66.8685 474.196 67.3965 475.564 67.6125 476.428L69.1965 475.852C68.9565 475.012 68.4285 473.692 67.9245 472.684L66.4125 473.164ZM99.0045 484.252V485.644H108.388V484.252H99.0045ZM99.0045 488.188V489.604H108.388V488.188H99.0045ZM99.0285 492.148V493.684H109.396V492.148H99.0285ZM96.1725 475.108V479.212H97.7325V476.668H107.236V479.164H108.892V475.108H96.1725ZM103.228 481.396V492.964H104.884V481.396H103.228ZM99.6525 480.244H99.5085L97.9485 481.876V494.716H99.6525V481.804H108.676V480.244H99.6525ZM102.124 472.612C100.852 477.076 98.5005 480.796 95.1645 483.1C95.5245 483.46 96.0765 484.204 96.2685 484.588C99.7965 481.996 102.34 477.916 103.828 472.948L102.124 472.612ZM102.508 478.06C103.012 479.044 103.636 480.412 103.9 481.276L105.46 480.58C105.196 479.74 104.572 478.444 103.996 477.46L102.508 478.06ZM87.7485 474.316V475.996H95.6205V474.316H87.7485ZM90.0525 481.348V482.932H93.6765V489.988H90.0525V491.572H95.2605V481.348H90.0525ZM90.7485 474.916C90.1485 479.308 89.0685 483.484 87.1485 486.124C87.4845 486.508 88.0125 487.348 88.2045 487.732C90.4125 484.708 91.7085 480.1 92.4765 475.18L90.7485 474.916ZM89.4525 481.348V493.54H91.0125V481.348H89.4525ZM130.9 473.596V473.908C130.708 479.716 130.444 481.852 130.012 482.356C129.796 482.572 129.604 482.62 129.244 482.62C128.836 482.62 127.804 482.62 126.724 482.5C127.012 482.956 127.18 483.628 127.228 484.108C128.308 484.156 129.364 484.156 129.964 484.108C130.636 484.036 131.068 483.892 131.476 483.412C132.076 482.644 132.34 480.484 132.58 474.364C132.604 474.148 132.604 473.596 132.604 473.596H130.9ZM125.932 474.244C125.596 478.396 124.756 481.996 120.316 483.82C120.7 484.108 121.18 484.708 121.372 485.116C126.124 482.98 127.18 479.02 127.564 474.244H125.932ZM120.844 473.596V475.156H131.476V473.596H120.844ZM122.908 486.172V492.028C122.908 493.732 123.388 494.212 125.308 494.212C125.716 494.212 128.02 494.212 128.452 494.212C130.108 494.212 130.54 493.42 130.708 490.156C130.276 490.036 129.628 489.796 129.292 489.532C129.22 492.364 129.076 492.748 128.284 492.748C127.756 492.748 125.86 492.748 125.5 492.748C124.66 492.748 124.492 492.652 124.492 492.028V486.172H122.908ZM120.964 486.724C120.676 488.38 120.1 490.516 119.284 491.812L120.604 492.388C121.42 491.068 121.948 488.86 122.26 487.108L120.964 486.724ZM124.876 485.116C125.812 486.244 126.916 487.78 127.444 488.74L128.62 487.9C128.092 486.988 126.964 485.5 125.98 484.444L124.876 485.116ZM130.3 486.22C131.14 487.828 132.004 489.988 132.316 491.284L133.732 490.756C133.372 489.46 132.46 487.348 131.596 485.764L130.3 486.22ZM121.084 476.86C122.38 477.94 124.084 479.428 124.924 480.364L125.932 479.188C125.068 478.324 123.34 476.908 122.044 475.852L121.084 476.86ZM113.908 473.236C114.46 474.244 115.132 475.612 115.42 476.5L117.004 475.852C116.692 475.012 116.044 473.692 115.42 472.684L113.908 473.236ZM112.06 479.908V481.348H119.356V479.908H112.06ZM112.06 483.124V484.564H119.356V483.124H112.06ZM111.412 476.644V478.132H119.932V476.644H111.412ZM112.876 486.364V487.852H117.676V491.86H112.876V493.372H119.236V486.364H112.876ZM112.06 486.364V494.476H113.596V486.364H112.06ZM152.62 476.116C152.38 477.364 151.828 479.236 151.396 480.388L152.476 480.748C152.956 479.668 153.508 477.94 153.988 476.5L152.62 476.116ZM147.724 476.452C148.276 477.532 148.804 478.972 148.972 479.932L150.148 479.5C149.956 478.564 149.428 477.124 148.852 476.068L147.724 476.452ZM144.652 473.788V494.764H146.284V475.396H155.908V473.788H144.652ZM155.332 473.788V492.7C155.332 493.036 155.236 493.132 154.924 493.156C154.612 493.156 153.628 493.18 152.596 493.132C152.836 493.564 153.052 494.308 153.1 494.716C154.588 494.74 155.572 494.692 156.172 494.428C156.772 494.14 156.964 493.684 156.964 492.7V473.788H155.332ZM146.884 480.124V481.54H154.804V480.124H146.884ZM147.148 484.084V485.524H154.492V484.084H147.148ZM149.452 481.972C149.86 482.668 150.292 483.652 150.484 484.276L151.804 483.724C151.612 483.124 151.132 482.188 150.724 481.492L149.452 481.972ZM141.412 482.26C142.036 483.772 142.732 485.764 142.972 486.964L144.34 486.412C144.028 485.284 143.356 483.316 142.684 481.828L141.412 482.26ZM139.036 488.26C139.324 489.892 139.588 492.028 139.612 493.42L140.98 493.108C140.908 491.692 140.62 489.604 140.308 487.996L139.036 488.26ZM136.516 488.092C136.3 490.036 135.94 492.196 135.388 493.66C135.748 493.756 136.42 493.996 136.732 494.164C137.212 492.676 137.668 490.42 137.908 488.332L136.516 488.092ZM135.964 481.636C135.964 481.276 136.996 480.748 136.996 480.748V480.724C138.556 478.804 140.14 475.996 141.34 473.332L139.828 472.66C138.868 475.276 137.236 478.036 136.732 478.756C136.252 479.476 135.82 479.98 135.436 480.076C135.628 480.508 135.892 481.3 135.964 481.636ZM135.964 481.636C136.324 481.444 136.948 481.324 140.692 480.892C140.716 480.556 140.764 479.956 140.836 479.524L136.732 479.884L135.94 480.388L135.964 481.636ZM136.108 487.036C136.108 486.7 137.164 486.196 137.164 486.196V486.148C139.372 483.748 141.652 480.364 143.428 477.052L142.012 476.212C140.5 479.5 138.076 482.956 137.332 483.844C136.612 484.756 136.084 485.38 135.604 485.476C135.796 485.908 136.06 486.7 136.108 487.036ZM136.108 487.036C136.564 486.796 137.332 486.604 143.236 485.692C143.212 485.356 143.212 484.756 143.26 484.348L136.876 485.236L136.06 485.788L136.108 487.036ZM141.652 487.78C142.156 489.244 142.756 491.188 142.996 492.484L144.268 492.028C144.004 490.78 143.404 488.86 142.852 487.372L141.652 487.78ZM148.036 484.78V487.876C148.036 489.46 148.396 490.036 149.98 490.036C150.34 490.036 152.596 490.036 153.1 490.036C153.676 490.036 154.324 490.036 154.636 489.94C154.588 489.58 154.54 489.004 154.516 488.596C154.132 488.692 153.46 488.692 153.052 488.692C152.62 488.692 150.532 488.692 150.1 488.692C149.62 488.692 149.524 488.5 149.524 487.9V484.78H148.036ZM174.844 480.964V482.692H181.228V480.964H174.844ZM165.964 492.148V493.852H181.588V492.148H165.964ZM174.22 472.804V493.012H176.044V472.804H174.22ZM168.916 477.892V492.916H170.668V477.892H168.916ZM159.556 478.42V480.124H167.692V478.42H159.556ZM162.844 472.948V488.308H164.548V472.948H162.844ZM159.316 488.908L159.988 490.684C162.22 489.772 165.196 488.524 167.932 487.324L167.596 485.74C164.572 486.916 161.404 488.188 159.316 488.908ZM183.892 483.22V484.852H205.132V483.22H183.892ZM194.572 487.516V489.1H203.548V487.516H194.572ZM193.78 483.94V493.036H195.604V483.94H193.78ZM189.076 487.852L187.588 488.404C189.46 493.252 192.724 494.26 198.34 494.26H204.94C205.036 493.732 205.324 492.94 205.588 492.532C204.34 492.556 199.324 492.556 198.412 492.556C193.708 492.532 190.54 491.788 189.076 487.852ZM188.044 485.62C187.42 489.148 185.884 491.836 183.34 493.492C183.748 493.78 184.444 494.428 184.708 494.764C187.348 492.844 189.076 489.868 189.844 485.884L188.044 485.62ZM188.164 478.252H200.668V480.22H188.164V478.252ZM188.164 475.012H200.668V476.956H188.164V475.012ZM186.412 473.644V481.588H202.492V473.644H186.412ZM211.732 491.956V493.564H225.292V491.956H211.732ZM210.724 485.668V494.716H212.572V487.252H224.5V494.668H226.444V485.668H210.724ZM208.084 474.004V475.708H228.916V474.004H208.084ZM219.604 474.676C216.916 478.108 212.092 480.844 207.34 482.38C207.724 482.764 208.348 483.604 208.612 484.012C213.364 482.188 218.332 479.284 221.356 475.468L219.604 474.676ZM220.396 479.26C223.156 480.388 226.468 482.332 228.22 483.724L229.516 482.356C227.716 481.06 224.428 479.164 221.668 478.036L220.396 479.26ZM217.54 478.156V484.948H219.388V476.38L219.364 476.356L217.54 478.156ZM232.636 474.412V476.164H252.508V474.412H232.636ZM243.028 482.572V484.348H251.548V482.572H243.028ZM231.724 491.908V493.66H253.3V491.908H231.724ZM242.164 475.06V492.772H244.036V475.06H242.164ZM235.012 480.58V492.844H236.86V480.58H235.012ZM267.004 484.252V485.644H276.388V484.252H267.004ZM267.004 488.188V489.604H276.388V488.188H267.004ZM267.028 492.148V493.684H277.396V492.148H267.028ZM264.172 475.108V479.212H265.732V476.668H275.236V479.164H276.892V475.108H264.172ZM271.228 481.396V492.964H272.884V481.396H271.228ZM267.652 480.244H267.508L265.948 481.876V494.716H267.652V481.804H276.676V480.244H267.652ZM270.124 472.612C268.852 477.076 266.5 480.796 263.164 483.1C263.524 483.46 264.076 484.204 264.268 484.588C267.796 481.996 270.34 477.916 271.828 472.948L270.124 472.612ZM270.508 478.06C271.012 479.044 271.636 480.412 271.9 481.276L273.46 480.58C273.196 479.74 272.572 478.444 271.996 477.46L270.508 478.06ZM255.748 474.316V475.996H263.62V474.316H255.748ZM258.052 481.348V482.932H261.676V489.988H258.052V491.572H263.26V481.348H258.052ZM258.748 474.916C258.148 479.308 257.068 483.484 255.148 486.124C255.484 486.508 256.012 487.348 256.204 487.732C258.412 484.708 259.708 480.1 260.476 475.18L258.748 474.916ZM257.452 481.348V493.54H259.012V481.348H257.452Z" fill="#646464"/>
<defs>
<filter id="filter0_d_5342_32941" x="175.586" y="0" width="103.177" height="16.125" filterUnits="userSpaceOnUse" color-interpolation-filters="sRGB">
<feFlood flood-opacity="0" result="BackgroundImageFix"/>
<feColorMatrix in="SourceAlpha" type="matrix" values="0 0 0 0 0 0 0 0 0 0 0 0 0 0 0 0 0 0 127 0" result="hardAlpha"/>
<feOffset dx="1" dy="-1"/>
<feGaussianBlur stdDeviation="2"/>
<feComposite in2="hardAlpha" operator="out"/>
<feColorMatrix type="matrix" values="0 0 0 0 0 0 0 0 0 0 0 0 0 0 0 0 0 0 0.05 0"/>
<feBlend mode="normal" in2="BackgroundImageFix" result="effect1_dropShadow_5342_32941"/>
<feBlend mode="normal" in="SourceGraphic" in2="effect1_dropShadow_5342_32941" result="shape"/>
</filter>
<filter id="filter1_d_5342_32941" x="75.7671" y="55.7129" width="154.247" height="19.6069" filterUnits="userSpaceOnUse" color-interpolation-filters="sRGB">
<feFlood flood-opacity="0" result="BackgroundImageFix"/>
<feColorMatrix in="SourceAlpha" type="matrix" values="0 0 0 0 0 0 0 0 0 0 0 0 0 0 0 0 0 0 127 0" result="hardAlpha"/>
<feOffset dx="1" dy="-1"/>
<feGaussianBlur stdDeviation="2"/>
<feComposite in2="hardAlpha" operator="out"/>
<feColorMatrix type="matrix" values="0 0 0 0 0 0 0 0 0 0 0 0 0 0 0 0 0 0 0.05 0"/>
<feBlend mode="normal" in2="BackgroundImageFix" result="effect1_dropShadow_5342_32941"/>
<feBlend mode="normal" in="SourceGraphic" in2="effect1_dropShadow_5342_32941" result="shape"/>
</filter>
<filter id="filter2_d_5342_32941" x="41.2681" y="270.119" width="161.21" height="30.0532" filterUnits="userSpaceOnUse" color-interpolation-filters="sRGB">
<feFlood flood-opacity="0" result="BackgroundImageFix"/>
<feColorMatrix in="SourceAlpha" type="matrix" values="0 0 0 0 0 0 0 0 0 0 0 0 0 0 0 0 0 0 127 0" result="hardAlpha"/>
<feOffset dx="-1" dy="1"/>
<feGaussianBlur stdDeviation="2"/>
<feComposite in2="hardAlpha" operator="out"/>
<feColorMatrix type="matrix" values="0 0 0 0 0 0 0 0 0 0 0 0 0 0 0 0 0 0 0.05 0"/>
<feBlend mode="normal" in2="BackgroundImageFix" result="effect1_dropShadow_5342_32941"/>
<feBlend mode="normal" in="SourceGraphic" in2="effect1_dropShadow_5342_32941" result="shape"/>
</filter>
<filter id="filter3_d_5342_32941" x="194.316" y="190.489" width="30.4492" height="36.5962" filterUnits="userSpaceOnUse" color-interpolation-filters="sRGB">
<feFlood flood-opacity="0" result="BackgroundImageFix"/>
<feColorMatrix in="SourceAlpha" type="matrix" values="0 0 0 0 0 0 0 0 0 0 0 0 0 0 0 0 0 0 127 0" result="hardAlpha"/>
<feOffset dy="1"/>
<feGaussianBlur stdDeviation="2"/>
<feComposite in2="hardAlpha" operator="out"/>
<feColorMatrix type="matrix" values="0 0 0 0 0 0 0 0 0 0 0 0 0 0 0 0 0 0 0.05 0"/>
<feBlend mode="normal" in2="BackgroundImageFix" result="effect1_dropShadow_5342_32941"/>
<feBlend mode="normal" in="SourceGraphic" in2="effect1_dropShadow_5342_32941" result="shape"/>
</filter>
</defs>
</svg>
